<svg width="80" height="23" viewBox="0 0 80 23.2" xmlns="http://www.w3.org/2000/svg"><g fill="currentColor"><path d="M 8.256 0.528 L 7.632 3.336 A 3.221 3.221 0 0 0 7.065 3.15 A 3.898 3.898 0 0 0 6.78 3.096 Q 6.312 3.024 5.832 3.024 Q 5.184 3.024 4.74 3.204 A 1.988 1.988 0 0 0 4.377 3.394 A 1.497 1.497 0 0 0 4.044 3.696 A 1.831 1.831 0 0 0 3.738 4.257 A 2.218 2.218 0 0 0 3.684 4.44 Q 3.576 4.872 3.576 5.376 L 3.576 6 L 7.992 6 L 7.992 8.976 L 3.576 8.976 L 3.576 18.624 L 0 18.624 L 0 5.328 A 7.037 7.037 0 0 1 0.178 3.699 A 4.799 4.799 0 0 1 1.38 1.44 Q 2.593 0.174 4.836 0.021 A 9.348 9.348 0 0 1 5.472 0 A 9.989 9.989 0 0 1 6.152 0.022 Q 6.47 0.043 6.743 0.087 A 4.468 4.468 0 0 1 7.14 0.168 Q 7.8 0.336 8.256 0.528 Z M 47.52 6.312 L 46.896 9.096 A 12.211 12.211 0 0 0 46.074 8.845 A 14.809 14.809 0 0 0 45.54 8.712 A 6.427 6.427 0 0 0 44.712 8.581 A 8.617 8.617 0 0 0 43.896 8.544 A 4.504 4.504 0 0 0 43.325 8.577 Q 42.726 8.654 42.45 8.912 A 0.743 0.743 0 0 0 42.216 9.48 Q 42.216 9.696 42.288 9.864 A 0.59 0.59 0 0 0 42.375 10.004 Q 42.421 10.061 42.486 10.117 A 1.312 1.312 0 0 0 42.576 10.188 A 2.566 2.566 0 0 0 42.743 10.298 Q 42.832 10.352 42.937 10.408 A 6.122 6.122 0 0 0 43.164 10.524 A 7.799 7.799 0 0 0 43.465 10.661 Q 43.606 10.722 43.768 10.787 A 16.975 16.975 0 0 0 44.112 10.92 A 20.276 20.276 0 0 1 44.937 11.242 Q 45.331 11.407 45.665 11.57 A 9.573 9.573 0 0 1 46.056 11.772 A 5.885 5.885 0 0 1 46.627 12.125 Q 47.005 12.392 47.268 12.684 A 2.865 2.865 0 0 1 47.83 13.591 A 2.742 2.742 0 0 1 47.892 13.776 A 4.069 4.069 0 0 1 48.027 14.421 Q 48.067 14.727 48.072 15.069 A 6.814 6.814 0 0 1 48.072 15.168 A 3.954 3.954 0 0 1 47.899 16.372 A 3.054 3.054 0 0 1 46.668 18 A 4.833 4.833 0 0 1 45.335 18.622 Q 44.221 18.96 42.696 18.96 A 16.21 16.21 0 0 1 41.539 18.921 Q 40.985 18.881 40.511 18.801 A 7.407 7.407 0 0 1 39.9 18.672 Q 38.803 18.389 38.367 18.198 A 2.441 2.441 0 0 1 38.352 18.192 L 38.952 15.288 Q 39.864 15.648 40.824 15.852 Q 41.784 16.056 42.72 16.056 Q 43.477 16.056 43.893 15.942 A 1.353 1.353 0 0 0 44.112 15.864 A 0.67 0.67 0 0 0 44.493 15.381 A 1.168 1.168 0 0 0 44.52 15.12 A 0.709 0.709 0 0 0 44.354 14.669 Q 44.268 14.562 44.139 14.464 A 1.805 1.805 0 0 0 43.992 14.364 Q 43.551 14.093 42.725 13.764 A 20.304 20.304 0 0 0 42.384 13.632 A 18.319 18.319 0 0 1 41.489 13.273 A 14.357 14.357 0 0 1 40.86 12.984 A 4.858 4.858 0 0 1 40.12 12.538 A 4.017 4.017 0 0 1 39.696 12.18 Q 39.216 11.712 38.952 11.064 Q 38.717 10.486 38.691 9.698 A 6.013 6.013 0 0 1 38.688 9.504 A 3.836 3.836 0 0 1 38.906 8.184 A 3.299 3.299 0 0 1 40.008 6.696 A 4.508 4.508 0 0 1 41.546 5.93 Q 42.462 5.664 43.632 5.664 Q 44.784 5.664 45.84 5.868 A 16.343 16.343 0 0 1 46.458 5.999 Q 47.071 6.142 47.492 6.301 A 4.835 4.835 0 0 1 47.52 6.312 Z M 79.512 13.488 L 71.4 13.488 A 2.363 2.363 0 0 0 72.321 15.157 A 2.922 2.922 0 0 0 72.432 15.24 Q 73.344 15.888 74.88 15.888 Q 75.864 15.888 76.812 15.708 Q 77.76 15.528 78.36 15.264 L 78.84 18.168 A 3.145 3.145 0 0 1 78.62 18.267 Q 78.503 18.314 78.367 18.362 A 7.554 7.554 0 0 1 78.072 18.456 Q 77.592 18.6 77.004 18.708 A 15.898 15.898 0 0 1 76.236 18.829 A 19.096 19.096 0 0 1 75.744 18.888 Q 75.072 18.96 74.4 18.96 Q 72.786 18.96 71.57 18.508 A 5.898 5.898 0 0 1 71.436 18.456 A 6.287 6.287 0 0 1 70.155 17.771 A 5.272 5.272 0 0 1 69.348 17.076 Q 68.52 16.2 68.124 15 A 7.958 7.958 0 0 1 67.747 13.008 A 9.366 9.366 0 0 1 67.728 12.408 A 9.266 9.266 0 0 1 67.834 10.972 Q 67.962 10.16 68.242 9.473 A 5.987 5.987 0 0 1 68.244 9.468 A 6.964 6.964 0 0 1 68.905 8.216 A 5.671 5.671 0 0 1 69.6 7.368 Q 70.44 6.528 71.532 6.096 Q 72.624 5.664 73.776 5.664 A 7.087 7.087 0 0 1 75.598 5.886 A 5.065 5.065 0 0 1 78.024 7.308 A 5.226 5.226 0 0 1 79.188 9.32 Q 79.448 10.118 79.537 11.085 A 11.52 11.52 0 0 1 79.584 12.144 Q 79.584 12.456 79.56 12.828 Q 79.536 13.2 79.512 13.488 Z M 57.552 13.464 L 57.552 2.856 L 61.128 2.28 L 61.128 6 L 65.424 6 L 65.424 8.976 L 61.128 8.976 L 61.128 13.416 A 5.223 5.223 0 0 0 61.174 14.13 Q 61.263 14.772 61.524 15.216 Q 61.835 15.743 62.641 15.857 A 3.445 3.445 0 0 0 63.12 15.888 A 6.71 6.71 0 0 0 64.118 15.811 A 7.561 7.561 0 0 0 64.308 15.78 A 6.68 6.68 0 0 0 64.997 15.622 A 5.401 5.401 0 0 0 65.424 15.48 L 65.928 18.264 A 9.269 9.269 0 0 1 65.108 18.552 A 11.656 11.656 0 0 1 64.488 18.72 Q 63.882 18.867 63.066 18.901 A 12.361 12.361 0 0 1 62.544 18.912 A 8.935 8.935 0 0 1 61.537 18.859 Q 61.031 18.801 60.604 18.682 A 4.322 4.322 0 0 1 60.12 18.516 Q 59.16 18.12 58.584 17.412 A 3.892 3.892 0 0 1 57.936 16.239 A 4.842 4.842 0 0 1 57.78 15.696 A 9.064 9.064 0 0 1 57.596 14.494 A 11.711 11.711 0 0 1 57.552 13.464 Z M 28.176 18.312 L 28.176 23.064 L 24.6 23.064 L 24.6 6.432 A 11.408 11.408 0 0 1 25.082 6.3 Q 25.336 6.235 25.622 6.174 A 19.132 19.132 0 0 1 25.704 6.156 A 18.689 18.689 0 0 1 26.674 5.978 A 21.056 21.056 0 0 1 27.012 5.928 Q 27.696 5.832 28.404 5.772 A 16.644 16.644 0 0 1 29.432 5.716 A 14.492 14.492 0 0 1 29.76 5.712 Q 31.32 5.712 32.544 6.18 Q 33.768 6.648 34.608 7.5 A 5.536 5.536 0 0 1 35.744 9.203 A 6.544 6.544 0 0 1 35.892 9.576 A 7.335 7.335 0 0 1 36.274 11.219 A 9.284 9.284 0 0 1 36.336 12.312 A 10.317 10.317 0 0 1 36.229 13.834 A 8.159 8.159 0 0 1 35.976 14.976 A 6.497 6.497 0 0 1 35.439 16.267 A 5.432 5.432 0 0 1 34.92 17.04 Q 34.224 17.904 33.192 18.384 A 5.076 5.076 0 0 1 31.78 18.797 A 6.64 6.64 0 0 1 30.816 18.864 A 6.802 6.802 0 0 1 29.881 18.802 A 5.746 5.746 0 0 1 29.424 18.72 Q 28.776 18.576 28.176 18.312 Z M 15.624 15.912 L 15.12 18.864 Q 13.56 18.84 12.588 18.528 Q 11.616 18.216 11.052 17.652 Q 10.488 17.088 10.284 16.284 A 6.435 6.435 0 0 1 10.125 15.372 A 8.643 8.643 0 0 1 10.08 14.472 L 10.08 0.576 L 13.656 0 L 13.656 13.752 A 5.502 5.502 0 0 0 13.674 14.206 A 4.037 4.037 0 0 0 13.728 14.616 A 1.705 1.705 0 0 0 13.831 14.965 A 1.333 1.333 0 0 0 14.004 15.264 Q 14.202 15.52 14.568 15.685 A 2.168 2.168 0 0 0 14.592 15.696 A 2.091 2.091 0 0 0 14.902 15.801 Q 15.209 15.881 15.624 15.912 Z M 21.24 6 L 21.24 18.624 L 17.664 18.624 L 17.664 6 L 21.24 6 Z M 54.312 6 L 54.312 18.624 L 50.736 18.624 L 50.736 6 L 54.312 6 Z M 28.176 8.88 L 28.176 15.336 A 2.295 2.295 0 0 0 28.483 15.5 Q 28.732 15.611 29.052 15.696 Q 29.592 15.84 30.144 15.84 Q 32.337 15.84 32.64 13.291 A 7.501 7.501 0 0 0 32.688 12.408 A 5.998 5.998 0 0 0 32.596 11.325 Q 32.482 10.705 32.227 10.21 A 3.226 3.226 0 0 0 31.944 9.756 A 2.41 2.41 0 0 0 30.352 8.809 A 3.674 3.674 0 0 0 29.736 8.76 Q 29.256 8.76 28.848 8.796 A 11.324 11.324 0 0 0 28.585 8.822 Q 28.467 8.835 28.365 8.85 A 4.896 4.896 0 0 0 28.176 8.88 Z M 21.489 3.024 A 2.447 2.447 0 0 0 21.576 2.352 A 2.663 2.663 0 0 0 21.546 1.942 A 1.851 1.851 0 0 0 20.94 0.804 Q 20.304 0.24 19.44 0.24 Q 18.576 0.24 17.94 0.804 A 1.808 1.808 0 0 0 17.392 1.68 A 2.447 2.447 0 0 0 17.304 2.352 A 2.663 2.663 0 0 0 17.335 2.762 A 1.851 1.851 0 0 0 17.94 3.9 Q 18.576 4.464 19.44 4.464 Q 20.304 4.464 20.94 3.9 A 1.808 1.808 0 0 0 21.489 3.024 Z M 54.561 3.024 A 2.447 2.447 0 0 0 54.648 2.352 A 2.663 2.663 0 0 0 54.618 1.942 A 1.851 1.851 0 0 0 54.012 0.804 Q 53.376 0.24 52.512 0.24 Q 51.648 0.24 51.012 0.804 A 1.808 1.808 0 0 0 50.464 1.68 A 2.447 2.447 0 0 0 50.376 2.352 A 2.663 2.663 0 0 0 50.407 2.762 A 1.851 1.851 0 0 0 51.012 3.9 Q 51.648 4.464 52.512 4.464 Q 53.376 4.464 54.012 3.9 A 1.808 1.808 0 0 0 54.561 3.024 Z M 71.4 11.04 L 76.128 11.04 Q 76.104 10.584 75.972 10.152 Q 75.84 9.72 75.564 9.384 A 2.126 2.126 0 0 0 74.996 8.902 A 2.496 2.496 0 0 0 74.868 8.832 Q 74.448 8.616 73.824 8.616 A 2.959 2.959 0 0 0 73.34 8.654 Q 73.067 8.699 72.839 8.799 A 1.802 1.802 0 0 0 72.792 8.82 Q 72.36 9.024 72.072 9.36 A 2.4 2.4 0 0 0 71.648 10.085 A 2.731 2.731 0 0 0 71.628 10.14 Q 71.472 10.584 71.4 11.04 Z" vector-effect="non-scaling-stroke"/></g></svg>